# Alias OBJ Model File
# Exported from SketchUp, (c) 2000-2012 Trimble Navigation Limited
# File units = centimeters

mtllib 斑马线3.mtl

g Mesh1 ___10_1 ___1_1 Model

usemtl _Color_H05_1
v 455 1.04006e-13 -1615
vt -5.90551 0
vn -1 -1.94109e-32 1.52656e-16
v 455 1.04006e-13 -1600
vt 0 0
v 455 0.5 -1600
vt 0 0.19685
v 455 0.5 -1615
vt -5.90551 0.19685
f 1/1/1 2/2/1 3/3/1 4/4/1 

vn 2.91164e-32 -1 9.70547e-33
vt 0 5.90551
v 500 1.04006e-13 -1615
vt -17.7165 5.90551
v 500 1.04006e-13 -1600
vt -17.7165 0
f 2/2/2 1/5/2 5/6/2 6/7/2 

vn -1.52656e-16 -9.70547e-33 -1
v 500 0.5 -1615
vt -17.7165 0.19685
f 5/7/3 1/2/3 4/3/3 7/8/3 

vn -2.91164e-32 1 -9.70547e-33
v 500 0.5 -1600
vt 17.7165 0
vt 17.7165 5.90551
f 4/5/4 3/2/4 8/9/4 7/10/4 

vn 1.52656e-16 9.70547e-33 1
vt 17.7165 0.19685
f 2/2/5 6/9/5 8/11/5 3/3/5 

vn 1 1.94109e-32 -1.52656e-16
vt 5.90551 0
vt 5.90551 0.19685
f 6/2/6 5/12/6 7/13/6 8/3/6 

g Mesh2 ___10_2 ___1_1 Model

v 9.09266e-12 3.15091e-14 -615
v 9.09495e-12 3.15091e-14 -600
v 9.09495e-12 0.5 -600
v 9.09266e-12 0.5 -615
f 9/1/1 10/2/1 11/3/1 12/4/1 

v 45 3.15091e-14 -615
v 45 3.15091e-14 -600
f 10/2/2 9/5/2 13/6/2 14/7/2 

v 45 0.5 -615
f 13/7/3 9/2/3 12/3/3 15/8/3 

v 45 0.5 -600
f 12/5/4 11/2/4 16/9/4 15/10/4 

f 10/2/5 14/9/5 16/11/5 11/3/5 

f 14/2/6 13/12/6 15/13/6 16/3/6 

g Mesh3 ___10_3 ___1_1 Model

v 1.8415e-11 2.62601e-14 -515
v 1.84173e-11 2.62601e-14 -500
v 1.84173e-11 0.5 -500
v 1.8415e-11 0.5 -515
f 17/1/1 18/2/1 19/3/1 20/4/1 

v 45 2.62601e-14 -515
v 45 2.62601e-14 -500
f 18/2/2 17/5/2 21/6/2 22/7/2 

v 45 0.5 -515
f 21/7/3 17/2/3 20/3/3 23/8/3 

v 45 0.5 -500
f 20/5/4 19/2/4 24/9/4 23/10/4 

f 18/2/5 22/9/5 24/11/5 19/3/5 

f 22/2/6 21/12/6 23/13/6 24/3/6 

g Mesh4 ___10_4 ___1_1 Model

v -4.00194e-13 8.39278e-14 -1615
v -3.97904e-13 8.39278e-14 -1600
v -3.97904e-13 0.5 -1600
v -4.00194e-13 0.5 -1615
f 25/1/1 26/2/1 27/3/1 28/4/1 

v 45 8.39278e-14 -1615
v 45 8.39278e-14 -1600
f 26/2/2 25/5/2 29/6/2 30/7/2 

v 45 0.5 -1615
f 29/7/3 25/2/3 28/3/3 31/8/3 

v 45 0.5 -1600
f 28/5/4 27/2/4 32/9/4 31/10/4 

f 26/2/5 30/9/5 32/11/5 27/3/5 

f 30/2/6 29/12/6 31/13/6 32/3/6 

g Mesh5 ___10_5 ___1_1 Model

v 1.83013e-11 4.20069e-14 -815
v 1.83036e-11 4.20069e-14 -800
v 1.83036e-11 0.5 -800
v 1.83013e-11 0.5 -815
f 33/1/1 34/2/1 35/3/1 36/4/1 

v 45 4.20069e-14 -815
v 45 4.20069e-14 -800
f 34/2/2 33/5/2 37/6/2 38/7/2 

v 45 0.5 -815
f 37/7/3 33/2/3 36/3/3 39/8/3 

v 45 0.5 -800
f 36/5/4 35/2/4 40/9/4 39/10/4 

f 34/2/5 38/9/5 40/11/5 35/3/5 

f 38/2/6 37/12/6 39/13/6 40/3/6 

g Mesh6 ___10_6 ___1_1 Model

v 455 4.08782e-14 -415
v 455 4.08782e-14 -400
v 455 0.5 -400
v 455 0.5 -415
f 41/1/1 42/2/1 43/3/1 44/4/1 

v 500 4.08782e-14 -415
v 500 4.08782e-14 -400
f 42/2/2 41/5/2 45/6/2 46/7/2 

v 500 0.5 -415
f 45/7/3 41/2/3 44/3/3 47/8/3 

v 500 0.5 -400
f 44/5/4 43/2/4 48/9/4 47/10/4 

f 42/2/5 46/9/5 48/11/5 43/3/5 

f 46/2/6 45/12/6 47/13/6 48/3/6 

g Mesh7 ___10_7 ___1_1 Model

v 1.84718e-11 1.05134e-14 -215
v 1.84741e-11 1.05134e-14 -200
v 1.84741e-11 0.5 -200
v 1.84718e-11 0.5 -215
f 49/1/1 50/2/1 51/3/1 52/4/1 

v 45 1.05134e-14 -215
v 45 1.05134e-14 -200
f 50/2/2 49/5/2 53/6/2 54/7/2 

v 45 0.5 -215
f 53/7/3 49/2/3 52/3/3 55/8/3 

v 45 0.5 -200
f 52/5/4 51/2/4 56/9/4 55/10/4 

f 50/2/5 54/9/5 56/11/5 51/3/5 

f 54/2/6 53/12/6 55/13/6 56/3/6 

g Mesh8 ___10_8 ___1_1 Model

v -2.29664e-13 5.24342e-14 -1015
v -2.27374e-13 5.24342e-14 -1000
v -2.27374e-13 0.5 -1000
v -2.29664e-13 0.5 -1015
f 57/1/1 58/2/1 59/3/1 60/4/1 

v 45 5.24342e-14 -1015
v 45 5.24342e-14 -1000
f 58/2/2 57/5/2 61/6/2 62/7/2 

v 45 0.5 -1015
f 61/7/3 57/2/3 60/3/3 63/8/3 

v 45 0.5 -1000
f 60/5/4 59/2/4 64/9/4 63/10/4 

f 58/2/5 62/9/5 64/11/5 59/3/5 

f 62/2/6 61/12/6 63/13/6 64/3/6 

g Mesh9 ___10_9 ___1_1 Model

v 455 8.81184e-14 -1315
v 455 8.81184e-14 -1300
v 455 0.5 -1300
v 455 0.5 -1315
f 65/1/1 66/2/1 67/3/1 68/4/1 

v 500 8.81184e-14 -1315
v 500 8.81184e-14 -1300
f 66/2/2 65/5/2 69/6/2 70/7/2 

v 500 0.5 -1315
f 69/7/3 65/2/3 68/3/3 71/8/3 

v 500 0.5 -1300
f 68/5/4 67/2/4 72/9/4 71/10/4 

f 66/2/5 70/9/5 72/11/5 67/3/5 

f 70/2/6 69/12/6 71/13/6 72/3/6 

g Mesh10 ___10_10 ___1_1 Model

v 455 5.66249e-14 -715
v 455 5.66249e-14 -700
v 455 0.5 -700
v 455 0.5 -715
f 73/1/1 74/2/1 75/3/1 76/4/1 

v 500 5.66249e-14 -715
v 500 5.66249e-14 -700
f 74/2/2 73/5/2 77/6/2 78/7/2 

v 500 0.5 -715
f 77/7/3 73/2/3 76/3/3 79/8/3 

v 500 0.5 -700
f 76/5/4 75/2/4 80/9/4 79/10/4 

f 74/2/5 78/9/5 80/11/5 75/3/5 

f 78/2/6 77/12/6 79/13/6 80/3/6 

g Mesh11 ___10_11 ___1_1 Model

v 455 8.294e-14 -1215
v 455 8.294e-14 -1200
v 455 0.5 -1200
v 455 0.5 -1215
f 81/1/1 82/2/1 83/3/1 84/4/1 

v 500 8.294e-14 -1215
v 500 8.294e-14 -1200
f 82/2/2 81/5/2 85/6/2 86/7/2 

v 500 0.5 -1215
f 85/7/3 81/2/3 84/3/3 87/8/3 

v 500 0.5 -1200
f 84/5/4 83/2/4 88/9/4 87/10/4 

f 82/2/5 86/9/5 88/11/5 83/3/5 

f 86/2/6 85/12/6 87/13/6 88/3/6 

g Mesh12 ___10_12 ___1_1 Model

v 1.81876e-11 6.8181e-14 -1315
v 1.81899e-11 6.8181e-14 -1300
v 1.81899e-11 0.5 -1300
v 1.81876e-11 0.5 -1315
f 89/1/1 90/2/1 91/3/1 92/4/1 

v 45 6.8181e-14 -1315
v 45 6.8181e-14 -1300
f 90/2/2 89/5/2 93/6/2 94/7/2 

v 45 0.5 -1315
f 93/7/3 89/2/3 92/3/3 95/8/3 

v 45 0.5 -1300
f 92/5/4 91/2/4 96/9/4 95/10/4 

f 90/2/5 94/9/5 96/11/5 91/3/5 

f 94/2/6 93/12/6 95/13/6 96/3/6 

g Mesh13 ___10_13 ___1_1 Model

v 455 7.77616e-14 -1115
v 455 7.77616e-14 -1100
v 455 0.5 -1100
v 455 0.5 -1115
f 97/1/1 98/2/1 99/3/1 100/4/1 

v 500 7.77616e-14 -1115
v 500 7.77616e-14 -1100
f 98/2/2 97/5/2 101/6/2 102/7/2 

v 500 0.5 -1115
f 101/7/3 97/2/3 100/3/3 103/8/3 

v 500 0.5 -1100
f 100/5/4 99/2/4 104/9/4 103/10/4 

f 98/2/5 102/9/5 104/11/5 99/3/5 

f 102/2/6 101/12/6 103/13/6 104/3/6 

g Mesh14 ___10_14 ___1_1 Model

v 455 7.23717e-14 -1015
v 455 7.23717e-14 -1000
v 455 0.5 -1000
v 455 0.5 -1015
f 105/1/1 106/2/1 107/3/1 108/4/1 

v 500 7.23717e-14 -1015
v 500 7.23717e-14 -1000
f 106/2/2 105/5/2 109/6/2 110/7/2 

v 500 0.5 -1015
f 109/7/3 105/2/3 108/3/3 111/8/3 

v 500 0.5 -1000
f 108/5/4 107/2/4 112/9/4 111/10/4 

f 106/2/5 110/9/5 112/11/5 107/3/5 

f 110/2/6 109/12/6 111/13/6 112/3/6 

g Mesh15 ___10_15 ___1_1 Model

v -2.28983e-15 1.57623e-14 -315
v 0 1.57623e-14 -300
v -1.45582e-32 0.5 -300
v -2.28983e-15 0.5 -315
f 113/1/1 114/2/1 115/3/1 116/4/1 

v 45 1.57623e-14 -315
v 45 1.57623e-14 -300
f 114/2/2 113/5/2 117/6/2 118/7/2 

v 45 0.5 -315
f 117/7/3 113/2/3 116/3/3 119/8/3 

v 45 0.5 -300
f 116/5/4 115/2/4 120/9/4 119/10/4 

f 114/2/5 118/9/5 120/11/5 115/3/5 

f 118/2/6 117/12/6 119/13/6 120/3/6 

g Mesh16 ___10_16 ___1_1 Model

v -2.29664e-13 5.77537e-14 -1115
v -2.27374e-13 5.77537e-14 -1100
v -2.27374e-13 0.5 -1100
v -2.29664e-13 0.5 -1115
f 121/1/1 122/2/1 123/3/1 124/4/1 

v 45 5.77537e-14 -1115
v 45 5.77537e-14 -1100
f 122/2/2 121/5/2 125/6/2 126/7/2 

v 45 0.5 -1115
f 125/7/3 121/2/3 124/3/3 127/8/3 

v 45 0.5 -1100
f 124/5/4 123/2/4 128/9/4 127/10/4 

f 122/2/5 126/9/5 128/11/5 123/3/5 

f 126/2/6 125/12/6 127/13/6 128/3/6 

g Mesh17 ___10_17 ___1_1 Model

v 455 9.35084e-14 -1415
v 455 9.35084e-14 -1400
v 455 0.5 -1400
v 455 0.5 -1415
f 129/1/1 130/2/1 131/3/1 132/4/1 

v 500 9.35084e-14 -1415
v 500 9.35084e-14 -1400
f 130/2/2 129/5/2 133/6/2 134/7/2 

v 500 0.5 -1415
f 133/7/3 129/2/3 132/3/3 135/8/3 

v 500 0.5 -1400
f 132/5/4 131/2/4 136/9/4 135/10/4 

f 130/2/5 134/9/5 136/11/5 131/3/5 

f 134/2/6 133/12/6 135/13/6 136/3/6 

g Mesh18 ___10_18 ___1_1 Model

v 455 3.56997e-14 -315
v 455 3.56997e-14 -300
v 455 0.5 -300
v 455 0.5 -315
f 137/1/1 138/2/1 139/3/1 140/4/1 

v 500 3.56997e-14 -315
v 500 3.56997e-14 -300
f 138/2/2 137/5/2 141/6/2 142/7/2 

v 500 0.5 -315
f 141/7/3 137/2/3 140/3/3 143/8/3 

v 500 0.5 -300
f 140/5/4 139/2/4 144/9/4 143/10/4 

f 138/2/5 142/9/5 144/11/5 139/3/5 

f 142/2/6 141/12/6 143/13/6 144/3/6 

g Mesh19 ___10_19 ___1_1 Model

v 9.03581e-12 4.72558e-14 -915
v 9.0381e-12 4.72558e-14 -900
v 9.0381e-12 0.5 -900
v 9.03581e-12 0.5 -915
f 145/1/1 146/2/1 147/3/1 148/4/1 

v 45 4.72558e-14 -915
v 45 4.72558e-14 -900
f 146/2/2 145/5/2 149/6/2 150/7/2 

v 45 0.5 -915
f 149/7/3 145/2/3 148/3/3 151/8/3 

v 45 0.5 -900
f 148/5/4 147/2/4 152/9/4 151/10/4 

f 146/2/5 150/9/5 152/11/5 147/3/5 

f 150/2/6 149/12/6 151/13/6 152/3/6 

g Mesh20 ___10_20 ___1_1 Model

v 455 5.14465e-14 -615
v 455 5.14465e-14 -600
v 455 0.5 -600
v 455 0.5 -615
f 153/1/1 154/2/1 155/3/1 156/4/1 

v 500 5.14465e-14 -615
v 500 5.14465e-14 -600
f 154/2/2 153/5/2 157/6/2 158/7/2 

v 500 0.5 -615
f 157/7/3 153/2/3 156/3/3 159/8/3 

v 500 0.5 -600
f 156/5/4 155/2/4 160/9/4 159/10/4 

f 154/2/5 158/9/5 160/11/5 155/3/5 

f 158/2/6 157/12/6 159/13/6 160/3/6 

g Mesh21 ___10_21 ___1_1 Model

v 455 6.20148e-14 -815
v 455 6.20148e-14 -800
v 455 0.5 -800
v 455 0.5 -815
f 161/1/1 162/2/1 163/3/1 164/4/1 

v 500 6.20148e-14 -815
v 500 6.20148e-14 -800
f 162/2/2 161/5/2 165/6/2 166/7/2 

v 500 0.5 -815
f 165/7/3 161/2/3 164/3/3 167/8/3 

v 500 0.5 -800
f 164/5/4 163/2/4 168/9/4 167/10/4 

f 162/2/5 166/9/5 168/11/5 163/3/5 

f 166/2/6 165/12/6 167/13/6 168/3/6 

g Mesh22 ___10_22 ___1_1 Model

v 455 3.05213e-14 -215
v 455 3.05213e-14 -200
v 455 0.5 -200
v 455 0.5 -215
f 169/1/1 170/2/1 171/3/1 172/4/1 

v 500 3.05213e-14 -215
v 500 3.05213e-14 -200
f 170/2/2 169/5/2 173/6/2 174/7/2 

v 500 0.5 -215
f 173/7/3 169/2/3 172/3/3 175/8/3 

v 500 0.5 -200
f 172/5/4 171/2/4 176/9/4 175/10/4 

f 170/2/5 174/9/5 176/11/5 171/3/5 

f 174/2/6 173/12/6 175/13/6 176/3/6 

g Mesh23 ___10_23 ___1_1 Model

v 9.1495e-12 2.09407e-14 -415
v 9.15179e-12 2.09407e-14 -400
v 9.15179e-12 0.5 -400
v 9.1495e-12 0.5 -415
f 177/1/1 178/2/1 179/3/1 180/4/1 

v 45 2.09407e-14 -415
v 45 2.09407e-14 -400
f 178/2/2 177/5/2 181/6/2 182/7/2 

v 45 0.5 -415
f 181/7/3 177/2/3 180/3/3 183/8/3 

v 45 0.5 -400
f 180/5/4 179/2/4 184/9/4 183/10/4 

f 178/2/5 182/9/5 184/11/5 179/3/5 

f 182/2/6 181/12/6 183/13/6 184/3/6 

g Mesh24 ___10_24 ___1_1 Model

v 3.66617e-11 6.30026e-14 -1215
v 3.6664e-11 6.30026e-14 -1200
v 3.6664e-11 0.5 -1200
v 3.66617e-11 0.5 -1215
f 185/1/1 186/2/1 187/3/1 188/4/1 

v 45 6.30026e-14 -1215
v 45 6.30026e-14 -1200
f 186/2/2 185/5/2 189/6/2 190/7/2 

v 45 0.5 -1215
f 189/7/3 185/2/3 188/3/3 191/8/3 

v 45 0.5 -1200
f 188/5/4 187/2/4 192/9/4 191/10/4 

f 186/2/5 190/9/5 192/11/5 187/3/5 

f 190/2/6 189/12/6 191/13/6 192/3/6 

g Mesh25 ___10_25 ___1_1 Model

v 455 9.86868e-14 -1515
v 455 9.86868e-14 -1500
v 455 0.5 -1500
v 455 0.5 -1515
f 193/1/1 194/2/1 195/3/1 196/4/1 

v 500 9.86868e-14 -1515
v 500 9.86868e-14 -1500
f 194/2/2 193/5/2 197/6/2 198/7/2 

v 500 0.5 -1515
f 197/7/3 193/2/3 196/3/3 199/8/3 

v 500 0.5 -1500
f 196/5/4 195/2/4 200/9/4 199/10/4 

f 194/2/5 198/9/5 200/11/5 195/3/5 

f 198/2/6 197/12/6 199/13/6 200/3/6 

g Mesh26 ___10_26 ___1_1 Model

v 455 6.71933e-14 -915
v 455 6.71933e-14 -900
v 455 0.5 -900
v 455 0.5 -915
f 201/1/1 202/2/1 203/3/1 204/4/1 

v 500 6.71933e-14 -915
v 500 6.71933e-14 -900
f 202/2/2 201/5/2 205/6/2 206/7/2 

v 500 0.5 -915
f 205/7/3 201/2/3 204/3/3 207/8/3 

v 500 0.5 -900
f 204/5/4 203/2/4 208/9/4 207/10/4 

f 202/2/5 206/9/5 208/11/5 203/3/5 

f 206/2/6 205/12/6 207/13/6 208/3/6 

g Mesh27 ___10_27 ___1_1 Model

v 455 4.62681e-14 -515
v 455 4.62681e-14 -500
v 455 0.5 -500
v 455 0.5 -515
f 209/1/1 210/2/1 211/3/1 212/4/1 

v 500 4.62681e-14 -515
v 500 4.62681e-14 -500
f 210/2/2 209/5/2 213/6/2 214/7/2 

v 500 0.5 -515
f 213/7/3 209/2/3 212/3/3 215/8/3 

v 500 0.5 -500
f 212/5/4 211/2/4 216/9/4 215/10/4 

f 210/2/5 214/9/5 216/11/5 211/3/5 

f 214/2/6 213/12/6 215/13/6 216/3/6 

g Mesh28 ___10_28 ___1_1 Model

v 1.83581e-11 3.66875e-14 -715
v 1.83604e-11 3.66875e-14 -700
v 1.83604e-11 0.5 -700
v 1.83581e-11 0.5 -715
f 217/1/1 218/2/1 219/3/1 220/4/1 

v 45 3.66875e-14 -715
v 45 3.66875e-14 -700
f 218/2/2 217/5/2 221/6/2 222/7/2 

v 45 0.5 -715
f 221/7/3 217/2/3 220/3/3 223/8/3 

v 45 0.5 -700
f 220/5/4 219/2/4 224/9/4 223/10/4 

f 218/2/5 222/9/5 224/11/5 219/3/5 

f 222/2/6 221/12/6 223/13/6 224/3/6 

g Mesh29 ___10_29 ___1_1 Model

v 1.81308e-11 7.87494e-14 -1515
v 1.81331e-11 7.87494e-14 -1500
v 1.81331e-11 0.5 -1500
v 1.81308e-11 0.5 -1515
f 225/1/1 226/2/1 227/3/1 228/4/1 

v 45 7.87494e-14 -1515
v 45 7.87494e-14 -1500
f 226/2/2 225/5/2 229/6/2 230/7/2 

v 45 0.5 -1515
f 229/7/3 225/2/3 228/3/3 231/8/3 

v 45 0.5 -1500
f 228/5/4 227/2/4 232/9/4 231/10/4 

f 226/2/5 230/9/5 232/11/5 227/3/5 

f 230/2/6 229/12/6 231/13/6 232/3/6 

g Mesh30 ___10_30 ___1_1 Model

v 1.81308e-11 7.35004e-14 -1415
v 1.81331e-11 7.35004e-14 -1400
v 1.81331e-11 0.5 -1400
v 1.81308e-11 0.5 -1415
f 233/1/1 234/2/1 235/3/1 236/4/1 

v 45 7.35004e-14 -1415
v 45 7.35004e-14 -1400
f 234/2/2 233/5/2 237/6/2 238/7/2 

v 45 0.5 -1415
f 237/7/3 233/2/3 236/3/3 239/8/3 

v 45 0.5 -1400
f 236/5/4 235/2/4 240/9/4 239/10/4 

f 234/2/5 238/9/5 240/11/5 235/3/5 

f 238/2/6 237/12/6 239/13/6 240/3/6 

g Mesh31 ___10_31 ___1_1 Model

v 455 2.50609e-14 -115
vn -1 -9.70547e-33 1.52656e-16
v 455 2.50609e-14 -100
v 455 0.5 -100
v 455 0.5 -115
f 241/1/7 242/2/7 243/3/7 244/4/7 

vn 1.94109e-32 -1 1.94109e-32
v 500 2.50609e-14 -115
v 500 2.50609e-14 -100
f 242/2/8 241/5/8 245/6/8 246/7/8 

vn -1.52656e-16 -2.91164e-32 -1
v 500 0.5 -115
f 245/7/9 241/2/9 244/3/9 247/8/9 

vn -1.94109e-32 1 -1.94109e-32
v 500 0.5 -100
f 244/5/10 243/2/10 248/9/10 247/10/10 

vn 1.52656e-16 2.91164e-32 1
f 242/2/11 246/9/11 248/11/11 243/3/11 

vn 1 9.70547e-33 -1.52656e-16
f 246/2/12 245/12/12 247/13/12 248/3/12 

g Mesh32 ___10_32 ___1_1 Model

v 455 1.9953e-14 -15
v 455 1.9953e-14 -0
v 455 0.5 -9.70547e-33
v 455 0.5 -15
f 249/1/7 250/2/7 251/3/7 252/4/7 

v 500 1.9953e-14 -15
v 500 1.9953e-14 -6.8695e-15
f 250/2/8 249/5/8 253/6/8 254/7/8 

v 500 0.5 -15
f 253/7/9 249/2/9 252/3/9 255/8/9 

v 500 0.5 -6.8695e-15
f 252/5/10 251/2/10 256/9/10 255/10/10 

f 250/2/11 254/9/11 256/11/11 251/3/11 

f 254/2/12 253/12/12 255/13/12 256/3/12 

g Mesh33 ___10_33 ___1_1 Model

v 9.20634e-12 5.12345e-15 -115
v 9.20863e-12 5.12345e-15 -100
v 9.20863e-12 0.5 -100
v 9.20634e-12 0.5 -115
f 257/1/7 258/2/7 259/3/7 260/4/7 

v 45 5.12345e-15 -115
v 45 5.12345e-15 -100
f 258/2/8 257/5/8 261/6/8 262/7/8 

v 45 0.5 -115
f 261/7/9 257/2/9 260/3/9 263/8/9 

v 45 0.5 -100
f 260/5/10 259/2/10 264/9/10 263/10/10 

f 258/2/11 262/9/11 264/11/11 259/3/11 

f 262/2/12 261/12/12 263/13/12 264/3/12 

g Mesh34 ___10_34 ___1_1 Model

v 1.85287e-11 1.55295e-17 -15
v 1.8531e-11 1.55295e-17 -9.09495e-12
v 1.8531e-11 0.5 -9.09495e-12
v 1.85287e-11 0.5 -15
f 265/1/7 266/2/7 267/3/7 268/4/7 

v 45 1.55295e-17 -15
v 45 1.55295e-17 -9.10182e-12
f 266/2/8 265/5/8 269/6/8 270/7/8 

v 45 0.5 -15
f 269/7/9 265/2/9 268/3/9 271/8/9 

v 45 0.5 -9.10182e-12
f 268/5/10 267/2/10 272/9/10 271/10/10 

f 266/2/11 270/9/11 272/11/11 267/3/11 

f 270/2/12 269/12/12 271/13/12 272/3/12 

