# Alias OBJ Model File
# Exported from SketchUp, (c) 2000-2012 Trimble Navigation Limited
# File units = centimeters

mtllib 斑马线4.mtl

g Mesh1 ___10_1 ___1_1 Model

usemtl _Color_H05_1
v 1615.27 2.21896e-15 -44.9463
vt -5.90551 0
vn 0.0488498 4.37079e-17 -0.998806
v 1600.29 3.04156e-15 -45.679
vt 0 0
v 1600.29 0.5 -45.679
vt 0 0.19685
v 1615.27 0.5 -44.9463
vt -5.90551 0.19685
f 1/1/1 2/2/1 3/3/1 4/4/1 

vn -5.26396e-17 -1 -4.63347e-17
vt 0 5.90551
v 1613.07 2.52105e-16 1.79767e-12
vt -17.7165 5.90551
v 1598.09 1.07471e-15 -0.732747
vt -17.7165 0
f 2/2/2 1/5/2 5/6/2 6/7/2 

vn 0.998806 -5.48402e-17 0.0488498
v 1613.07 0.5 1.79767e-12
vt -17.7165 0.19685
f 5/7/3 1/2/3 4/3/3 7/8/3 

vn 5.26396e-17 1 4.63347e-17
v 1598.09 0.5 -0.732747
vt 17.7165 0
vt 17.7165 5.90551
f 4/5/4 3/2/4 8/9/4 7/10/4 

vn -0.998806 5.48402e-17 -0.0488498
vt 17.7165 0.19685
f 2/2/5 6/9/5 8/11/5 3/3/5 

vn -0.0488498 -4.37079e-17 0.998806
vt 5.90551 0
vt 5.90551 0.19685
f 6/2/6 5/12/6 7/13/6 8/3/6 

g Mesh2 ___10_2 ___1_1 Model

v 638.691 4.44913e-15 -548.253
v 623.709 5.27173e-15 -548.986
v 623.709 0.5 -548.986
v 638.691 0.5 -548.253
f 9/1/1 10/2/1 11/3/1 12/4/1 

v 636.492 2.48227e-15 -503.307
v 621.51 3.30488e-15 -504.039
f 10/2/2 9/5/2 13/6/2 14/7/2 

v 636.492 0.5 -503.307
f 13/7/3 9/2/3 12/3/3 15/8/3 

v 621.51 0.5 -504.039
f 12/5/4 11/2/4 16/9/4 15/10/4 

f 10/2/5 14/9/5 16/11/5 11/3/5 

f 14/2/6 13/12/6 15/13/6 16/3/6 

g Mesh3 ___10_3 ___1_1 Model

v 538.81 4.68423e-15 -553.138
v 523.828 5.50683e-15 -553.871
v 523.828 0.5 -553.871
v 538.81 0.5 -553.138
f 17/1/1 18/2/1 19/3/1 20/4/1 

v 536.612 2.71737e-15 -508.192
v 521.63 3.53998e-15 -508.924
f 18/2/2 17/5/2 21/6/2 22/7/2 

v 536.612 0.5 -508.192
f 21/7/3 17/2/3 20/3/3 23/8/3 

v 521.63 0.5 -508.924
f 20/5/4 19/2/4 24/9/4 23/10/4 

f 18/2/5 22/9/5 24/11/5 19/3/5 

f 22/2/6 21/12/6 23/13/6 24/3/6 

g Mesh4 ___10_4 ___1_1 Model

v 1637.5 2.02762e-15 -499.403
v 1622.51 2.85023e-15 -500.136
v 1622.51 0.5 -500.136
v 1637.5 0.5 -499.403
f 25/1/1 26/2/1 27/3/1 28/4/1 

v 1635.3 6.07679e-17 -454.457
v 1620.32 8.83371e-16 -455.19
f 26/2/2 25/5/2 29/6/2 30/7/2 

v 1635.3 0.5 -454.457
f 29/7/3 25/2/3 28/3/3 31/8/3 

v 1620.32 0.5 -455.19
f 28/5/4 27/2/4 32/9/4 31/10/4 

f 26/2/5 30/9/5 32/11/5 27/3/5 

f 30/2/6 29/12/6 31/13/6 32/3/6 

g Mesh5 ___10_5 ___1_1 Model

v 838.452 3.97893e-15 -538.483
v 823.47 4.80153e-15 -539.216
v 823.47 0.5 -539.216
v 838.452 0.5 -538.483
f 33/1/1 34/2/1 35/3/1 36/4/1 

v 836.254 2.01207e-15 -493.537
v 821.272 2.83468e-15 -494.269
f 34/2/2 33/5/2 37/6/2 38/7/2 

v 836.254 0.5 -493.537
f 37/7/3 33/2/3 36/3/3 39/8/3 

v 821.272 0.5 -494.269
f 36/5/4 35/2/4 40/9/4 39/10/4 

f 34/2/5 38/9/5 40/11/5 35/3/5 

f 38/2/6 37/12/6 39/13/6 40/3/6 

g Mesh6 ___10_6 ___1_1 Model

v 416.703 4.89917e-15 -103.566
v 401.721 5.72177e-15 -104.299
v 401.721 0.5 -104.299
v 416.703 0.5 -103.566
f 41/1/1 42/2/1 43/3/1 44/4/1 

v 414.505 2.93231e-15 -58.6197
v 399.522 3.75492e-15 -59.3525
f 42/2/2 41/5/2 45/6/2 46/7/2 

v 414.505 0.5 -58.6197
f 45/7/3 41/2/3 44/3/3 47/8/3 

v 399.522 0.5 -59.3525
f 44/5/4 43/2/4 48/9/4 47/10/4 

f 42/2/5 46/9/5 48/11/5 43/3/5 

f 46/2/6 45/12/6 47/13/6 48/3/6 

g Mesh7 ___10_7 ___1_1 Model

v 239.168 5.38953e-15 -567.793
v 224.186 6.21214e-15 -568.525
v 224.186 0.5 -568.525
v 239.168 0.5 -567.793
f 49/1/1 50/2/1 51/3/1 52/4/1 

v 236.97 3.42268e-15 -522.846
v 221.988 4.24528e-15 -523.579
f 50/2/2 49/5/2 53/6/2 54/7/2 

v 236.97 0.5 -522.846
f 53/7/3 49/2/3 52/3/3 55/8/3 

v 221.988 0.5 -523.579
f 52/5/4 51/2/4 56/9/4 55/10/4 

f 50/2/5 54/9/5 56/11/5 51/3/5 

f 54/2/6 53/12/6 55/13/6 56/3/6 

g Mesh8 ___10_8 ___1_1 Model

v 1038.21 3.43823e-15 -528.713
v 1023.23 4.26083e-15 -529.446
v 1023.23 0.5 -529.446
v 1038.21 0.5 -528.713
f 57/1/1 58/2/1 59/3/1 60/4/1 

v 1036.01 1.47137e-15 -483.767
v 1021.03 2.29398e-15 -484.499
f 58/2/2 57/5/2 61/6/2 62/7/2 

v 1036.01 0.5 -483.767
f 61/7/3 57/2/3 60/3/3 63/8/3 

v 1021.03 0.5 -484.499
f 60/5/4 59/2/4 64/9/4 63/10/4 

f 58/2/5 62/9/5 64/11/5 59/3/5 

f 62/2/6 61/12/6 63/13/6 64/3/6 

g Mesh9 ___10_9 ___1_1 Model

v 1315.63 2.78326e-15 -59.6012
v 1300.65 3.60587e-15 -60.334
v 1300.65 0.5 -60.334
v 1315.63 0.5 -59.6012
f 65/1/1 66/2/1 67/3/1 68/4/1 

v 1313.43 8.16409e-16 -14.6549
v 1298.45 1.63901e-15 -15.3877
f 66/2/2 65/5/2 69/6/2 70/7/2 

v 1313.43 0.5 -14.6549
f 69/7/3 65/2/3 68/3/3 71/8/3 

v 1298.45 0.5 -15.3877
f 68/5/4 67/2/4 72/9/4 71/10/4 

f 66/2/5 70/9/5 72/11/5 67/3/5 

f 70/2/6 69/12/6 71/13/6 72/3/6 

g Mesh10 ___10_10 ___1_1 Model

v 716.345 4.19387e-15 -88.9111
v 701.363 5.01647e-15 -89.6438
v 701.363 0.5 -89.6438
v 716.345 0.5 -88.9111
f 73/1/1 74/2/1 75/3/1 76/4/1 

v 714.146 2.22701e-15 -43.9648
v 699.164 3.04962e-15 -44.6975
f 74/2/2 73/5/2 77/6/2 78/7/2 

v 714.146 0.5 -43.9648
f 77/7/3 73/2/3 76/3/3 79/8/3 

v 699.164 0.5 -44.6975
f 76/5/4 75/2/4 80/9/4 79/10/4 

f 74/2/5 78/9/5 80/11/5 75/3/5 

f 78/2/6 77/12/6 79/13/6 80/3/6 

g Mesh11 ___10_11 ___1_1 Model

v 1215.75 3.08886e-15 -64.4862
v 1200.77 3.91147e-15 -65.2189
v 1200.77 0.5 -65.2189
v 1215.75 0.5 -64.4862
f 81/1/1 82/2/1 83/3/1 84/4/1 

v 1213.55 1.12201e-15 -19.5399
v 1198.57 1.94461e-15 -20.2727
f 82/2/2 81/5/2 85/6/2 86/7/2 

v 1213.55 0.5 -19.5399
f 85/7/3 81/2/3 84/3/3 87/8/3 

v 1198.57 0.5 -20.2727
f 84/5/4 83/2/4 88/9/4 87/10/4 

f 82/2/5 86/9/5 88/11/5 83/3/5 

f 86/2/6 85/12/6 87/13/6 88/3/6 

g Mesh12 ___10_12 ___1_1 Model

v 1337.85 2.73293e-15 -514.058
v 1322.87 3.55553e-15 -514.791
v 1322.87 0.5 -514.791
v 1337.85 0.5 -514.058
f 89/1/1 90/2/1 91/3/1 92/4/1 

v 1335.66 7.6607e-16 -469.112
v 1320.67 1.58867e-15 -469.844
f 90/2/2 89/5/2 93/6/2 94/7/2 

v 1335.66 0.5 -469.112
f 93/7/3 89/2/3 92/3/3 95/8/3 

v 1320.67 0.5 -469.844
f 92/5/4 91/2/4 96/9/4 95/10/4 

f 90/2/5 94/9/5 96/11/5 91/3/5 

f 94/2/6 93/12/6 95/13/6 96/3/6 

g Mesh13 ___10_13 ___1_1 Model

v 1115.87 3.39446e-15 -69.3712
v 1100.88 4.21707e-15 -70.1039
v 1100.88 0.5 -70.1039
v 1115.87 0.5 -69.3712
f 97/1/1 98/2/1 99/3/1 100/4/1 

v 1113.67 1.42761e-15 -24.4249
v 1098.69 2.25021e-15 -25.1576
f 98/2/2 97/5/2 101/6/2 102/7/2 

v 1113.67 0.5 -24.4249
f 101/7/3 97/2/3 100/3/3 103/8/3 

v 1098.69 0.5 -25.1576
f 100/5/4 99/2/4 104/9/4 103/10/4 

f 98/2/5 102/9/5 104/11/5 99/3/5 

f 102/2/6 101/12/6 103/13/6 104/3/6 

g Mesh14 ___10_14 ___1_1 Model

v 1015.99 3.48857e-15 -74.2561
v 1001 4.31117e-15 -74.9889
v 1001 0.5 -74.9889
v 1015.99 0.5 -74.2561
f 105/1/1 106/2/1 107/3/1 108/4/1 

v 1013.79 1.52171e-15 -29.3099
v 998.806 2.34431e-15 -30.0426
f 106/2/2 105/5/2 109/6/2 110/7/2 

v 1013.79 0.5 -29.3099
f 109/7/3 105/2/3 108/3/3 111/8/3 

v 998.806 0.5 -30.0426
f 108/5/4 107/2/4 112/9/4 111/10/4 

f 106/2/5 110/9/5 112/11/5 107/3/5 

f 110/2/6 109/12/6 111/13/6 112/3/6 

g Mesh15 ___10_15 ___1_1 Model

v 339.049 5.15443e-15 -562.908
v 324.067 5.97704e-15 -563.641
v 324.067 0.5 -563.641
v 339.049 0.5 -562.908
f 113/1/1 114/2/1 115/3/1 116/4/1 

v 336.851 3.18758e-15 -517.961
v 321.868 4.01018e-15 -518.694
f 114/2/2 113/5/2 117/6/2 118/7/2 

v 336.851 0.5 -517.961
f 117/7/3 113/2/3 116/3/3 119/8/3 

v 321.868 0.5 -518.694
f 116/5/4 115/2/4 120/9/4 119/10/4 

f 114/2/5 118/9/5 120/11/5 115/3/5 

f 118/2/6 117/12/6 119/13/6 120/3/6 

g Mesh16 ___10_16 ___1_1 Model

v 1138.09 3.27363e-15 -523.828
v 1123.11 4.09623e-15 -524.561
v 1123.11 0.5 -524.561
v 1138.09 0.5 -523.828
f 121/1/1 122/2/1 123/3/1 124/4/1 

v 1135.9 1.30677e-15 -478.882
v 1120.91 2.12937e-15 -479.614
f 122/2/2 121/5/2 125/6/2 126/7/2 

v 1135.9 0.5 -478.882
f 125/7/3 121/2/3 124/3/3 127/8/3 

v 1120.91 0.5 -479.614
f 124/5/4 123/2/4 128/9/4 127/10/4 

f 122/2/5 126/9/5 128/11/5 123/3/5 

f 126/2/6 125/12/6 127/13/6 128/3/6 

g Mesh17 ___10_17 ___1_1 Model

v 1415.51 2.68916e-15 -54.7162
v 1400.53 3.51177e-15 -55.449
v 1400.53 0.5 -55.449
v 1415.51 0.5 -54.7162
f 129/1/1 130/2/1 131/3/1 132/4/1 

v 1413.31 7.22306e-16 -9.76995
v 1398.33 1.54491e-15 -10.5027
f 130/2/2 129/5/2 133/6/2 134/7/2 

v 1413.31 0.5 -9.76995
f 133/7/3 129/2/3 132/3/3 135/8/3 

v 1398.33 0.5 -10.5027
f 132/5/4 131/2/4 136/9/4 135/10/4 

f 130/2/5 134/9/5 136/11/5 131/3/5 

f 134/2/6 133/12/6 135/13/6 136/3/6 

g Mesh18 ___10_18 ___1_1 Model

v 316.822 5.20477e-15 -108.451
v 301.84 6.02737e-15 -109.184
v 301.84 0.5 -109.184
v 316.822 0.5 -108.451
f 137/1/1 138/2/1 139/3/1 140/4/1 

v 314.624 3.23791e-15 -63.5047
v 299.642 4.06052e-15 -64.2374
f 138/2/2 137/5/2 141/6/2 142/7/2 

v 314.624 0.5 -63.5047
f 141/7/3 137/2/3 140/3/3 143/8/3 

v 299.642 0.5 -64.2374
f 140/5/4 139/2/4 144/9/4 143/10/4 

f 138/2/5 142/9/5 144/11/5 139/3/5 

f 142/2/6 141/12/6 143/13/6 144/3/6 

g Mesh19 ___10_19 ___1_1 Model

v 938.333 3.74383e-15 -533.598
v 923.35 4.56643e-15 -534.331
v 923.35 0.5 -534.331
v 938.333 0.5 -533.598
f 145/1/1 146/2/1 147/3/1 148/4/1 

v 936.134 1.77697e-15 -488.652
v 921.152 2.59958e-15 -489.384
f 146/2/2 145/5/2 149/6/2 150/7/2 

v 936.134 0.5 -488.652
f 149/7/3 145/2/3 148/3/3 151/8/3 

v 921.152 0.5 -489.384
f 148/5/4 147/2/4 152/9/4 151/10/4 

f 146/2/5 150/9/5 152/11/5 147/3/5 

f 150/2/6 149/12/6 151/13/6 152/3/6 

g Mesh20 ___10_20 ___1_1 Model

v 616.464 4.49947e-15 -93.796
v 601.482 5.32207e-15 -94.5288
v 601.482 0.5 -94.5288
v 616.464 0.5 -93.796
f 153/1/1 154/2/1 155/3/1 156/4/1 

v 614.266 2.53261e-15 -48.8498
v 599.284 3.35522e-15 -49.5825
f 154/2/2 153/5/2 157/6/2 158/7/2 

v 614.266 0.5 -48.8498
f 157/7/3 153/2/3 156/3/3 159/8/3 

v 599.284 0.5 -49.5825
f 156/5/4 155/2/4 160/9/4 159/10/4 

f 154/2/5 158/9/5 160/11/5 155/3/5 

f 158/2/6 157/12/6 159/13/6 160/3/6 

g Mesh21 ___10_21 ___1_1 Model

v 816.225 4.09977e-15 -84.0261
v 801.243 4.92237e-15 -84.7588
v 801.243 0.5 -84.7588
v 816.225 0.5 -84.0261
f 161/1/1 162/2/1 163/3/1 164/4/1 

v 814.027 2.13291e-15 -39.0798
v 799.045 2.95551e-15 -39.8126
f 162/2/2 161/5/2 165/6/2 166/7/2 

v 814.027 0.5 -39.0798
f 165/7/3 161/2/3 164/3/3 167/8/3 

v 799.045 0.5 -39.8126
f 164/5/4 163/2/4 168/9/4 167/10/4 

f 162/2/5 166/9/5 168/11/5 163/3/5 

f 166/2/6 165/12/6 167/13/6 168/3/6 

g Mesh22 ___10_22 ___1_1 Model

v 216.942 5.51037e-15 -113.336
v 201.959 6.33297e-15 -114.069
v 201.959 0.5 -114.069
v 216.942 0.5 -113.336
f 169/1/1 170/2/1 171/3/1 172/4/1 

v 214.743 3.54351e-15 -68.3897
v 199.761 4.36612e-15 -69.1224
f 170/2/2 169/5/2 173/6/2 174/7/2 

v 214.743 0.5 -68.3897
f 173/7/3 169/2/3 172/3/3 175/8/3 

v 199.761 0.5 -69.1224
f 172/5/4 171/2/4 176/9/4 175/10/4 

f 170/2/5 174/9/5 176/11/5 171/3/5 

f 174/2/6 173/12/6 175/13/6 176/3/6 

g Mesh23 ___10_23 ___1_1 Model

v 438.929 4.84883e-15 -558.023
v 423.947 5.67144e-15 -558.756
v 423.947 0.5 -558.756
v 438.929 0.5 -558.023
f 177/1/1 178/2/1 179/3/1 180/4/1 

v 436.731 2.88198e-15 -513.077
v 421.749 3.70458e-15 -513.809
f 178/2/2 177/5/2 181/6/2 182/7/2 

v 436.731 0.5 -513.077
f 181/7/3 177/2/3 180/3/3 183/8/3 

v 421.749 0.5 -513.809
f 180/5/4 179/2/4 184/9/4 183/10/4 

f 178/2/5 182/9/5 184/11/5 179/3/5 

f 182/2/6 181/12/6 183/13/6 184/3/6 

g Mesh24 ___10_24 ___1_1 Model

v 1237.97 3.03853e-15 -518.943
v 1222.99 3.86113e-15 -519.676
v 1222.99 0.5 -519.676
v 1237.97 0.5 -518.943
f 185/1/1 186/2/1 187/3/1 188/4/1 

v 1235.78 1.07167e-15 -473.997
v 1220.79 1.89427e-15 -474.729
f 186/2/2 185/5/2 189/6/2 190/7/2 

v 1235.78 0.5 -473.997
f 189/7/3 185/2/3 188/3/3 191/8/3 

v 1220.79 0.5 -474.729
f 188/5/4 187/2/4 192/9/4 191/10/4 

f 186/2/5 190/9/5 192/11/5 187/3/5 

f 190/2/6 189/12/6 191/13/6 192/3/6 

g Mesh25 ___10_25 ___1_1 Model

v 1515.39 2.38356e-15 -49.8313
v 1500.41 3.20617e-15 -50.564
v 1500.41 0.5 -50.564
v 1515.39 0.5 -49.8313
f 193/1/1 194/2/1 195/3/1 196/4/1 

v 1513.19 4.16706e-16 -4.88498
v 1498.21 1.23931e-15 -5.61772
f 194/2/2 193/5/2 197/6/2 198/7/2 

v 1513.19 0.5 -4.88498
f 197/7/3 193/2/3 196/3/3 199/8/3 

v 1498.21 0.5 -5.61772
f 196/5/4 195/2/4 200/9/4 199/10/4 

f 194/2/5 198/9/5 200/11/5 195/3/5 

f 198/2/6 197/12/6 199/13/6 200/3/6 

g Mesh26 ___10_26 ___1_1 Model

v 916.106 3.79417e-15 -79.1411
v 901.124 4.61677e-15 -79.8739
v 901.124 0.5 -79.8739
v 916.106 0.5 -79.1411
f 201/1/1 202/2/1 203/3/1 204/4/1 

v 913.908 1.82731e-15 -34.1948
v 898.926 2.64991e-15 -34.9276
f 202/2/2 201/5/2 205/6/2 206/7/2 

v 913.908 0.5 -34.1948
f 205/7/3 201/2/3 204/3/3 207/8/3 

v 898.926 0.5 -34.9276
f 204/5/4 203/2/4 208/9/4 207/10/4 

f 202/2/5 206/9/5 208/11/5 203/3/5 

f 206/2/6 205/12/6 207/13/6 208/3/6 

g Mesh27 ___10_27 ___1_1 Model

v 516.583 4.80507e-15 -98.681
v 501.601 5.62767e-15 -99.4138
v 501.601 0.5 -99.4138
v 516.583 0.5 -98.681
f 209/1/1 210/2/1 211/3/1 212/4/1 

v 514.385 2.83821e-15 -53.7347
v 499.403 3.66082e-15 -54.4675
f 210/2/2 209/5/2 213/6/2 214/7/2 

v 514.385 0.5 -53.7347
f 213/7/3 209/2/3 212/3/3 215/8/3 

v 499.403 0.5 -54.4675
f 212/5/4 211/2/4 216/9/4 215/10/4 

f 210/2/5 214/9/5 216/11/5 211/3/5 

f 214/2/6 213/12/6 215/13/6 216/3/6 

g Mesh28 ___10_28 ___1_1 Model

v 738.571 4.14353e-15 -543.368
v 723.589 4.96613e-15 -544.101
v 723.589 0.5 -544.101
v 738.571 0.5 -543.368
f 217/1/1 218/2/1 219/3/1 220/4/1 

v 736.373 2.17667e-15 -498.422
v 721.391 2.99928e-15 -499.154
f 218/2/2 217/5/2 221/6/2 222/7/2 

v 736.373 0.5 -498.422
f 221/7/3 217/2/3 220/3/3 223/8/3 

v 721.391 0.5 -499.154
f 220/5/4 219/2/4 224/9/4 223/10/4 

f 218/2/5 222/9/5 224/11/5 219/3/5 

f 222/2/6 221/12/6 223/13/6 224/3/6 

g Mesh29 ___10_29 ___1_1 Model

v 1537.62 2.33322e-15 -504.288
v 1522.63 3.15583e-15 -505.021
v 1522.63 0.5 -505.021
v 1537.62 0.5 -504.288
f 225/1/1 226/2/1 227/3/1 228/4/1 

v 1535.42 3.66368e-16 -459.342
v 1520.44 1.18897e-15 -460.075
f 226/2/2 225/5/2 229/6/2 230/7/2 

v 1535.42 0.5 -459.342
f 229/7/3 225/2/3 228/3/3 231/8/3 

v 1520.44 0.5 -460.075
f 228/5/4 227/2/4 232/9/4 231/10/4 

f 226/2/5 230/9/5 232/11/5 227/3/5 

f 230/2/6 229/12/6 231/13/6 232/3/6 

g Mesh30 ___10_30 ___1_1 Model

v 1437.74 2.56832e-15 -509.173
v 1422.75 3.39093e-15 -509.906
v 1422.75 0.5 -509.906
v 1437.74 0.5 -509.173
f 233/1/1 234/2/1 235/3/1 236/4/1 

v 1435.54 6.01468e-16 -464.227
v 1420.56 1.42407e-15 -464.959
f 234/2/2 233/5/2 237/6/2 238/7/2 

v 1435.54 0.5 -464.227
f 237/7/3 233/2/3 236/3/3 239/8/3 

v 1420.56 0.5 -464.959
f 236/5/4 235/2/4 240/9/4 239/10/4 

f 234/2/5 238/9/5 240/11/5 235/3/5 

f 238/2/6 237/12/6 239/13/6 240/3/6 

g Mesh31 ___10_31 ___1_1 Model

v 117.061 5.53397e-15 -118.221
v 102.079 6.35658e-15 -118.954
v 102.079 0.5 -118.954
v 117.061 0.5 -118.221
f 241/1/1 242/2/1 243/3/1 244/4/1 

v 114.863 3.56712e-15 -73.2747
v 99.8806 4.38972e-15 -74.0074
f 242/2/2 241/5/2 245/6/2 246/7/2 

v 114.863 0.5 -73.2747
f 245/7/3 241/2/3 244/3/3 247/8/3 

v 99.8806 0.5 -74.0074
f 244/5/4 243/2/4 248/9/4 247/10/4 

f 242/2/5 246/9/5 248/11/5 243/3/5 

f 246/2/6 245/12/6 247/13/6 248/3/6 

g Mesh32 ___10_32 ___1_1 Model

v 17.1803 5.91007e-15 -123.106
v 2.19824 6.73268e-15 -123.839
v 2.19824 0.5 -123.839
v 17.1803 0.5 -123.106
f 249/1/1 250/2/1 251/3/1 252/4/1 

v 14.9821 3.94322e-15 -78.1596
v 1.80567e-12 4.76582e-15 -78.8924
f 250/2/2 249/5/2 253/6/2 254/7/2 

v 14.9821 0.5 -78.1596
f 253/7/3 249/2/3 252/3/3 255/8/3 

v 1.80567e-12 0.5 -78.8924
f 252/5/4 251/2/4 256/9/4 255/10/4 

f 250/2/5 254/9/5 256/11/5 251/3/5 

f 254/2/6 253/12/6 255/13/6 256/3/6 

g Mesh33 ___10_33 ___1_1 Model

v 139.288 5.48363e-15 -572.678
v 124.305 6.30624e-15 -573.41
v 124.305 0.5 -573.41
v 139.288 0.5 -572.678
f 257/1/1 258/2/1 259/3/1 260/4/1 

v 137.089 3.51678e-15 -527.731
v 122.107 4.33938e-15 -528.464
f 258/2/2 257/5/2 261/6/2 262/7/2 

v 137.089 0.5 -527.731
f 261/7/3 257/2/3 260/3/3 263/8/3 

v 122.107 0.5 -528.464
f 260/5/4 259/2/4 264/9/4 263/10/4 

f 258/2/5 262/9/5 264/11/5 259/3/5 

f 262/2/6 261/12/6 263/13/6 264/3/6 

g Mesh34 ___10_34 ___1_1 Model

v 39.407 5.85973e-15 -577.563
v 24.4249 6.68234e-15 -578.295
v 24.4249 0.5 -578.295
v 39.407 0.5 -577.563
f 265/1/1 266/2/1 267/3/1 268/4/1 

v 37.2087 3.89288e-15 -532.616
v 22.2266 4.71548e-15 -533.349
f 266/2/2 265/5/2 269/6/2 270/7/2 

v 37.2087 0.5 -532.616
f 269/7/3 265/2/3 268/3/3 271/8/3 

v 22.2266 0.5 -533.349
f 268/5/4 267/2/4 272/9/4 271/10/4 

f 266/2/5 270/9/5 272/11/5 267/3/5 

f 270/2/6 269/12/6 271/13/6 272/3/6 

