<?xml version="1.0" standalone="no"?><!DOCTYPE svg PUBLIC "-//W3C//DTD SVG 1.1//EN" "http://www.w3.org/Graphics/SVG/1.1/DTD/svg11.dtd"><svg t="1613625404123" class="icon" viewBox="0 0 1024 1024" version="1.1" xmlns="http://www.w3.org/2000/svg" p-id="822" xmlns:xlink="http://www.w3.org/1999/xlink" width="32" height="32"><defs><style type="text/css"></style></defs><path d="M576.80112702 2.99630962c-232.36159167 0-422.09032895 187.59709476-422.09032895 419.96495393 0 123.64154572 53.29106692 236.62487666 140.70095757 313.37028292l281.39564102 281.38937361 296.31714079-298.44251578c78.87704877-78.87704877 123.64781534-185.46545225 123.64781531-296.31714075-0.01253925-232.36786131-187.60963403-419.96495609-419.97122574-419.96495393z m2.13164252 780.23137628c-196.12993441 0-356.00940485-157.75409755-360.27268984-351.74611983v-21.31642719c6.39492751-191.86664943 166.28066757-345.35119231 360.27268984-345.35119232 185.45918262 0 338.94999519 138.56931283 358.13477985 317.6398376v12.78985504c2.13164252 10.65821252 2.13164252 19.18478469 2.13164249 29.84299716 0.00626964 198.25530727-162.01111293 358.14104732-360.26642234 358.14104954z" fill="#FA7355" p-id="823"></path><path d="M355.09775005 369.66392696l183.33380974 115.11497567c10.65194288 6.40119716 23.4480697 10.66448217 38.36956723 10.66448217 12.78985503 0 27.71135472-4.263285 38.37583906-10.66448217l183.33380976-115.11497567c12.78985503-8.52656999 19.18478469-19.18478469 19.18478252-31.98090935 0-12.78985503-6.40119716-25.58598182-19.18478252-31.97463973l-183.33380976-115.1212431c-21.32269683-12.78985503-53.29106692-12.78985503-74.6137638 0l-183.33380976 115.1212431c-12.78985503 8.52656999-19.18478469 19.18478469-19.18478467 31.97463973-2.13164252 12.79612466 4.25701537 25.58598182 17.0531422 31.98090935z m185.4591826 198.25530948c10.65821252 6.39492751 23.4480697 10.65821252 36.23792473 10.65821252s25.58598182-4.263285 36.23792691-10.65821252l198.25530729-132.16811571c8.52656999-4.263285 8.52656999-14.92776931 4.26328502-23.4480697-2.13164252-4.263285-6.40119716-6.39492751-10.65821255-6.39492752-4.263285 0-8.52656999 0-12.78985718 2.12537284l-198.2553073 132.17438536c-8.52656999 6.39492751-27.70508509 6.39492751-36.23792471 0l-198.24903981-132.17438536c-4.263285-2.12537285-8.52656999-4.263285-12.79612465-2.12537284-4.263285 0-8.52656999 4.263285-10.65194508 6.39492752-4.263285 8.52656999-2.13791214 17.05314221 4.26328504 23.4480697l200.38068229 132.16811571z m251.55264385-72.47585164l-198.25530725 132.16811571c-8.52656999 6.40119716-27.70508509 6.40119716-36.23792474 0l-198.24903983-132.16811571c-8.52656999-4.263285-17.05941184-2.13791214-23.4480697 4.263285-4.263285 8.52656999-2.13791214 17.05314221 4.263285 23.44806971l198.25530948 132.17438534c10.65194288 6.40119716 23.4480697 10.65821252 36.23792472 10.65821252s25.57971221-4.263285 36.2379269-10.65821252l198.24903763-132.17438534c6.40119716-4.263285 8.53283965-14.9214997 4.26955467-21.3164272-4.26955466-8.53283965-12.79612466-10.65821252-21.32269688-6.39492751z m0 0" fill="#FA7355" p-id="824"></path></svg>