# Alias OBJ Model File
# Exported from SketchUp, (c) 2000-2012 Trimble Navigation Limited
# File units = centimeters

mtllib 斑马线7.mtl

g Mesh1 ___10_1 ___27_1 Model

usemtl _Color_H05_1
v 0 7.35306e-14 -2115
vt -5.90551 0
vn -1 0 -0
v 0 7.35306e-14 -2100
vt 0 0
v 0 0.5 -2100
vt 0 0.19685
v 0 0.5 -2115
vt -5.90551 0.19685
f 1/1/1 2/2/1 3/3/1 4/4/1 

vn 0 -1 -0
vt 0 5.90551
v 45 7.35306e-14 -2115
vt -17.7165 5.90551
v 45 7.35306e-14 -2100
vt -17.7165 0
f 2/2/2 1/5/2 5/6/2 6/7/2 

vn 0 0 -1
v 45 0.5 -2115
vt -17.7165 0.19685
f 5/7/3 1/2/3 4/3/3 7/8/3 

vn 0 1 -0
v 45 0.5 -2100
vt 17.7165 0
vt 17.7165 5.90551
f 4/5/4 3/2/4 8/9/4 7/10/4 

vn 0 0 1
vt 17.7165 0.19685
f 2/2/5 6/9/5 8/11/5 3/3/5 

vn 1 0 -0
vt 5.90551 0
vt 5.90551 0.19685
f 6/2/6 5/12/6 7/13/6 8/3/6 

g Mesh2 ___10_2 ___27_1 Model

v 455 9.35524e-14 -2115
v 455 9.35524e-14 -2100
v 455 0.5 -2100
v 455 0.5 -2115
f 9/1/1 10/2/1 11/3/1 12/4/1 

v 500 9.35524e-14 -2115
v 500 9.35524e-14 -2100
f 10/2/2 9/5/2 13/6/2 14/7/2 

v 500 0.5 -2115
f 13/7/3 9/2/3 12/3/3 15/8/3 

v 500 0.5 -2100
f 12/5/4 11/2/4 16/9/4 15/10/4 

f 10/2/5 14/9/5 16/11/5 11/3/5 

f 14/2/6 13/12/6 15/13/6 16/3/6 

g Mesh3 ___10_3 ___27_1 Model

v 0 2.62962e-14 -1215
v 0 2.62962e-14 -1200
v 0 0.5 -1200
v 0 0.5 -1215
f 17/1/1 18/2/1 19/3/1 20/4/1 

v 45 2.62962e-14 -1215
v 45 2.62962e-14 -1200
f 18/2/2 17/5/2 21/6/2 22/7/2 

v 45 0.5 -1215
f 21/7/3 17/2/3 20/3/3 23/8/3 

v 45 0.5 -1200
f 20/5/4 19/2/4 24/9/4 23/10/4 

f 18/2/5 22/9/5 24/11/5 19/3/5 

f 22/2/6 21/12/6 23/13/6 24/3/6 

g Mesh4 ___10_4 ___27_1 Model

v 0 1.05044e-14 -915
v 0 1.05044e-14 -900
v 0 0.5 -900
v 0 0.5 -915
f 25/1/1 26/2/1 27/3/1 28/4/1 

v 45 1.05044e-14 -915
v 45 1.05044e-14 -900
f 26/2/2 25/5/2 29/6/2 30/7/2 

v 45 0.5 -915
f 29/7/3 25/2/3 28/3/3 31/8/3 

v 45 0.5 -900
f 28/5/4 27/2/4 32/9/4 31/10/4 

f 26/2/5 30/9/5 32/11/5 27/3/5 

f 30/2/6 29/12/6 31/13/6 32/3/6 

g Mesh5 ___10_5 ___27_1 Model

v 0 6.82432e-14 -2015
v 0 6.82432e-14 -2000
v 0 0.5 -2000
v 0 0.5 -2015
f 33/1/1 34/2/1 35/3/1 36/4/1 

v 45 6.82432e-14 -2015
v 45 6.82432e-14 -2000
f 34/2/2 33/5/2 37/6/2 38/7/2 

v 45 0.5 -2015
f 37/7/3 33/2/3 36/3/3 39/8/3 

v 45 0.5 -2000
f 36/5/4 35/2/4 40/9/4 39/10/4 

f 34/2/5 38/9/5 40/11/5 35/3/5 

f 38/2/6 37/12/6 39/13/6 40/3/6 

g Mesh6 ___10_6 ___27_1 Model

v 455 3.58136e-14 -1015
v 455 3.58136e-14 -1000
v 455 0.5 -1000
v 455 0.5 -1015
f 41/1/1 42/2/1 43/3/1 44/4/1 

v 500 3.58136e-14 -1015
v 500 3.58136e-14 -1000
f 42/2/2 41/5/2 45/6/2 46/7/2 

v 500 0.5 -1015
f 45/7/3 41/2/3 44/3/3 47/8/3 

v 500 0.5 -1000
f 44/5/4 43/2/4 48/9/4 47/10/4 

f 42/2/5 46/9/5 48/11/5 43/3/5 

f 46/2/6 45/12/6 47/13/6 48/3/6 

g Mesh7 ___10_7 ___27_1 Model

v 0 3.15131e-14 -1315
v 0 3.15131e-14 -1300
v 0 0.5 -1300
v 0 0.5 -1315
f 49/1/1 50/2/1 51/3/1 52/4/1 

v 45 3.15131e-14 -1315
v 45 3.15131e-14 -1300
f 50/2/2 49/5/2 53/6/2 54/7/2 

v 45 0.5 -1315
f 53/7/3 49/2/3 52/3/3 55/8/3 

v 45 0.5 -1300
f 52/5/4 51/2/4 56/9/4 55/10/4 

f 50/2/5 54/9/5 56/11/5 51/3/5 

f 54/2/6 53/12/6 55/13/6 56/3/6 

g Mesh8 ___10_8 ___27_1 Model

v 455 4.62475e-14 -1215
v 455 4.62475e-14 -1200
v 455 0.5 -1200
v 455 0.5 -1215
f 57/1/1 58/2/1 59/3/1 60/4/1 

v 500 4.62475e-14 -1215
v 500 4.62475e-14 -1200
f 58/2/2 57/5/2 61/6/2 62/7/2 

v 500 0.5 -1215
f 61/7/3 57/2/3 60/3/3 63/8/3 

v 500 0.5 -1200
f 60/5/4 59/2/4 64/9/4 63/10/4 

f 58/2/5 62/9/5 64/11/5 59/3/5 

f 62/2/6 61/12/6 63/13/6 64/3/6 

g Mesh9 ___10_9 ___27_1 Model

v 0 5.28744e-15 -815
v 0 5.28744e-15 -800
v 0 0.5 -800
v 0 0.5 -815
f 65/1/1 66/2/1 67/3/1 68/4/1 

v 45 5.28744e-15 -815
v 45 5.28744e-15 -800
f 66/2/2 65/5/2 69/6/2 70/7/2 

v 45 0.5 -815
f 69/7/3 65/2/3 68/3/3 71/8/3 

v 45 0.5 -800
f 68/5/4 67/2/4 72/9/4 71/10/4 

f 66/2/5 70/9/5 72/11/5 67/3/5 

f 70/2/6 69/12/6 71/13/6 72/3/6 

g Mesh10 ___10_10 ___27_1 Model

v 455 2.53092e-14 -815
v 455 2.53092e-14 -800
v 455 0.5 -800
v 455 0.5 -815
f 73/1/1 74/2/1 75/3/1 76/4/1 

v 500 2.53092e-14 -815
v 500 2.53092e-14 -800
f 74/2/2 73/5/2 77/6/2 78/7/2 

v 500 0.5 -815
f 77/7/3 73/2/3 76/3/3 79/8/3 

v 500 0.5 -800
f 76/5/4 75/2/4 80/9/4 79/10/4 

f 74/2/5 78/9/5 80/11/5 75/3/5 

f 78/2/6 77/12/6 79/13/6 80/3/6 

g Mesh11 ___10_11 ___27_1 Model

v 0 4.20175e-14 -1515
v 0 4.20175e-14 -1500
v 0 0.5 -1500
v 0 0.5 -1515
f 81/1/1 82/2/1 83/3/1 84/4/1 

v 45 4.20175e-14 -1515
v 45 4.20175e-14 -1500
f 82/2/2 81/5/2 85/6/2 86/7/2 

v 45 0.5 -1515
f 85/7/3 81/2/3 84/3/3 87/8/3 

v 45 0.5 -1500
f 84/5/4 83/2/4 88/9/4 87/10/4 

f 82/2/5 86/9/5 88/11/5 83/3/5 

f 86/2/6 85/12/6 87/13/6 88/3/6 

g Mesh12 ___10_12 ___27_1 Model

v 0 2.10088e-14 -1115
v 0 2.10088e-14 -1100
v 0 0.5 -1100
v 0 0.5 -1115
f 89/1/1 90/2/1 91/3/1 92/4/1 

v 45 2.10088e-14 -1115
v 45 2.10088e-14 -1100
f 90/2/2 89/5/2 93/6/2 94/7/2 

v 45 0.5 -1115
f 93/7/3 89/2/3 92/3/3 95/8/3 

v 45 0.5 -1100
f 92/5/4 91/2/4 96/9/4 95/10/4 

f 90/2/5 94/9/5 96/11/5 91/3/5 

f 94/2/6 93/12/6 95/13/6 96/3/6 

g Mesh13 ___10_13 ___27_1 Model

v 0 3.68006e-14 -1415
v 0 3.68006e-14 -1400
v 0 0.5 -1400
v 0 0.5 -1415
f 97/1/1 98/2/1 99/3/1 100/4/1 

v 45 3.68006e-14 -1415
v 45 3.68006e-14 -1400
f 98/2/2 97/5/2 101/6/2 102/7/2 

v 45 0.5 -1415
f 101/7/3 97/2/3 100/3/3 103/8/3 

v 45 0.5 -1400
f 100/5/4 99/2/4 104/9/4 103/10/4 

f 98/2/5 102/9/5 104/11/5 99/3/5 

f 102/2/6 101/12/6 103/13/6 104/3/6 

g Mesh14 ___10_14 ___27_1 Model

v 455 8.3048e-14 -1915
v 455 8.3048e-14 -1900
v 455 0.5 -1900
v 455 0.5 -1915
f 105/1/1 106/2/1 107/3/1 108/4/1 

v 500 8.3048e-14 -1915
v 500 8.3048e-14 -1900
f 106/2/2 105/5/2 109/6/2 110/7/2 

v 500 0.5 -1915
f 109/7/3 105/2/3 108/3/3 111/8/3 

v 500 0.5 -1900
f 108/5/4 107/2/4 112/9/4 111/10/4 

f 106/2/5 110/9/5 112/11/5 107/3/5 

f 110/2/6 109/12/6 111/13/6 112/3/6 

g Mesh15 ___10_15 ___27_1 Model

v 0 1.57918e-14 -1015
v 0 1.57918e-14 -1000
v 0 0.5 -1000
v 0 0.5 -1015
f 113/1/1 114/2/1 115/3/1 116/4/1 

v 45 1.57918e-14 -1015
v 45 1.57918e-14 -1000
f 114/2/2 113/5/2 117/6/2 118/7/2 

v 45 0.5 -1015
f 117/7/3 113/2/3 116/3/3 119/8/3 

v 45 0.5 -1000
f 116/5/4 115/2/4 120/9/4 119/10/4 

f 114/2/5 118/9/5 120/11/5 115/3/5 

f 118/2/6 117/12/6 119/13/6 120/3/6 

g Mesh16 ___10_16 ___27_1 Model

v 455 4.10305e-14 -1115
v 455 4.10305e-14 -1100
v 455 0.5 -1100
v 455 0.5 -1115
f 121/1/1 122/2/1 123/3/1 124/4/1 

v 500 4.10305e-14 -1115
v 500 4.10305e-14 -1100
f 122/2/2 121/5/2 125/6/2 126/7/2 

v 500 0.5 -1115
f 125/7/3 121/2/3 124/3/3 127/8/3 

v 500 0.5 -1100
f 124/5/4 123/2/4 128/9/4 127/10/4 

f 122/2/5 126/9/5 128/11/5 123/3/5 

f 126/2/6 125/12/6 127/13/6 128/3/6 

g Mesh17 ___10_17 ___27_1 Model

v 455 2.53092e-14 -115
v 455 2.53092e-14 -100
v 455 0.5 -100
v 455 0.5 -115
f 129/1/1 130/2/1 131/3/1 132/4/1 

v 500 2.53092e-14 -115
v 500 2.53092e-14 -100
f 130/2/2 129/5/2 133/6/2 134/7/2 

v 500 0.5 -115
f 133/7/3 129/2/3 132/3/3 135/8/3 

v 500 0.5 -100
f 132/5/4 131/2/4 136/9/4 135/10/4 

f 130/2/5 134/9/5 136/11/5 131/3/5 

f 134/2/6 133/12/6 135/13/6 136/3/6 

g Mesh18 ___10_18 ___27_1 Model

v 455 3.58136e-14 -315
v 455 3.58136e-14 -300
v 455 0.5 -300
v 455 0.5 -315
f 137/1/1 138/2/1 139/3/1 140/4/1 

v 500 3.58136e-14 -315
v 500 3.58136e-14 -300
f 138/2/2 137/5/2 141/6/2 142/7/2 

v 500 0.5 -315
f 141/7/3 137/2/3 140/3/3 143/8/3 

v 500 0.5 -300
f 140/5/4 139/2/4 144/9/4 143/10/4 

f 138/2/5 142/9/5 144/11/5 139/3/5 

f 142/2/6 141/12/6 143/13/6 144/3/6 

g Mesh19 ___10_19 ___27_1 Model

v 0 5.25219e-14 -1715
v 0 5.25219e-14 -1700
v 0 0.5 -1700
v 0 0.5 -1715
f 145/1/1 146/2/1 147/3/1 148/4/1 

v 45 5.25219e-14 -1715
v 45 5.25219e-14 -1700
f 146/2/2 145/5/2 149/6/2 150/7/2 

v 45 0.5 -1715
f 149/7/3 145/2/3 148/3/3 151/8/3 

v 45 0.5 -1700
f 148/5/4 147/2/4 152/9/4 151/10/4 

f 146/2/5 150/9/5 152/11/5 147/3/5 

f 150/2/6 149/12/6 151/13/6 152/3/6 

g Mesh20 ___10_20 ___27_1 Model

v 455 5.67518e-14 -1415
v 455 5.67518e-14 -1400
v 455 0.5 -1400
v 455 0.5 -1415
f 153/1/1 154/2/1 155/3/1 156/4/1 

v 500 5.67518e-14 -1415
v 500 5.67518e-14 -1400
f 154/2/2 153/5/2 157/6/2 158/7/2 

v 500 0.5 -1415
f 157/7/3 153/2/3 156/3/3 159/8/3 

v 500 0.5 -1400
f 156/5/4 155/2/4 160/9/4 159/10/4 

f 154/2/5 158/9/5 160/11/5 155/3/5 

f 158/2/6 157/12/6 159/13/6 160/3/6 

g Mesh21 ___10_21 ___27_1 Model

v 0 1.57918e-14 -315
v 0 1.57918e-14 -300
v 0 0.5 -300
v 0 0.5 -315
f 161/1/1 162/2/1 163/3/1 164/4/1 

v 45 1.57918e-14 -315
v 45 1.57918e-14 -300
f 162/2/2 161/5/2 165/6/2 166/7/2 

v 45 0.5 -315
f 165/7/3 161/2/3 164/3/3 167/8/3 

v 45 0.5 -300
f 164/5/4 163/2/4 168/9/4 167/10/4 

f 162/2/5 166/9/5 168/11/5 163/3/5 

f 166/2/6 165/12/6 167/13/6 168/3/6 

g Mesh22 ___10_22 ___27_1 Model

v 455 8.8265e-14 -2015
v 455 8.8265e-14 -2000
v 455 0.5 -2000
v 455 0.5 -2015
f 169/1/1 170/2/1 171/3/1 172/4/1 

v 500 8.8265e-14 -2015
v 500 8.8265e-14 -2000
f 170/2/2 169/5/2 173/6/2 174/7/2 

v 500 0.5 -2015
f 173/7/3 169/2/3 172/3/3 175/8/3 

v 500 0.5 -2000
f 172/5/4 171/2/4 176/9/4 175/10/4 

f 170/2/5 174/9/5 176/11/5 171/3/5 

f 174/2/6 173/12/6 175/13/6 176/3/6 

g Mesh23 ___10_23 ___27_1 Model

v 455 6.72562e-14 -1615
v 455 6.72562e-14 -1600
v 455 0.5 -1600
v 455 0.5 -1615
f 177/1/1 178/2/1 179/3/1 180/4/1 

v 500 6.72562e-14 -1615
v 500 6.72562e-14 -1600
f 178/2/2 177/5/2 181/6/2 182/7/2 

v 500 0.5 -1615
f 181/7/3 177/2/3 180/3/3 183/8/3 

v 500 0.5 -1600
f 180/5/4 179/2/4 184/9/4 183/10/4 

f 178/2/5 182/9/5 184/11/5 179/3/5 

f 182/2/6 181/12/6 183/13/6 184/3/6 

g Mesh24 ___10_24 ___27_1 Model

v 455 7.77606e-14 -1815
v 455 7.77606e-14 -1800
v 455 0.5 -1800
v 455 0.5 -1815
f 185/1/1 186/2/1 187/3/1 188/4/1 

v 500 7.77606e-14 -1815
v 500 7.77606e-14 -1800
f 186/2/2 185/5/2 189/6/2 190/7/2 

v 500 0.5 -1815
f 189/7/3 185/2/3 188/3/3 191/8/3 

v 500 0.5 -1800
f 188/5/4 187/2/4 192/9/4 191/10/4 

f 186/2/5 190/9/5 192/11/5 187/3/5 

f 190/2/6 189/12/6 191/13/6 192/3/6 

g Mesh25 ___10_25 ___27_1 Model

v 455 2.00218e-14 -15
v 455 2.00218e-14 -0
v 455 0.5 -0
v 455 0.5 -15
f 193/1/1 194/2/1 195/3/1 196/4/1 

v 500 2.00218e-14 -15
v 500 2.00218e-14 -0
f 194/2/2 193/5/2 197/6/2 198/7/2 

v 500 0.5 -15
f 197/7/3 193/2/3 196/3/3 199/8/3 

v 500 0.5 -0
f 196/5/4 195/2/4 200/9/4 199/10/4 

f 194/2/5 198/9/5 200/11/5 195/3/5 

f 198/2/6 197/12/6 199/13/6 200/3/6 

g Mesh26 ___10_26 ___27_1 Model

v 0 0 -715
v 0 0 -700
v 0 0.5 -700
v 0 0.5 -715
f 201/1/1 202/2/1 203/3/1 204/4/1 

v 45 0 -715
v 45 0 -700
f 202/2/2 201/5/2 205/6/2 206/7/2 

v 45 0.5 -715
f 205/7/3 201/2/3 204/3/3 207/8/3 

v 45 0.5 -700
f 204/5/4 203/2/4 208/9/4 207/10/4 

f 202/2/5 206/9/5 208/11/5 203/3/5 

f 206/2/6 205/12/6 207/13/6 208/3/6 

g Mesh27 ___10_27 ___27_1 Model

v 0 5.77388e-14 -1815
v 0 5.77388e-14 -1800
v 0 0.5 -1800
v 0 0.5 -1815
f 209/1/1 210/2/1 211/3/1 212/4/1 

v 45 5.77388e-14 -1815
v 45 5.77388e-14 -1800
f 210/2/2 209/5/2 213/6/2 214/7/2 

v 45 0.5 -1815
f 213/7/3 209/2/3 212/3/3 215/8/3 

v 45 0.5 -1800
f 212/5/4 211/2/4 216/9/4 215/10/4 

f 210/2/5 214/9/5 216/11/5 211/3/5 

f 214/2/6 213/12/6 215/13/6 216/3/6 

g Mesh28 ___10_28 ___27_1 Model

v 0 1.05044e-14 -215
v 0 1.05044e-14 -200
v 0 0.5 -200
v 0 0.5 -215
f 217/1/1 218/2/1 219/3/1 220/4/1 

v 45 1.05044e-14 -215
v 45 1.05044e-14 -200
f 218/2/2 217/5/2 221/6/2 222/7/2 

v 45 0.5 -215
f 221/7/3 217/2/3 220/3/3 223/8/3 

v 45 0.5 -200
f 220/5/4 219/2/4 224/9/4 223/10/4 

f 218/2/5 222/9/5 224/11/5 219/3/5 

f 222/2/6 221/12/6 223/13/6 224/3/6 

g Mesh29 ___10_29 ___27_1 Model

v 455 4.62475e-14 -515
v 455 4.62475e-14 -500
v 455 0.5 -500
v 455 0.5 -515
f 225/1/1 226/2/1 227/3/1 228/4/1 

v 500 4.62475e-14 -515
v 500 4.62475e-14 -500
f 226/2/2 225/5/2 229/6/2 230/7/2 

v 500 0.5 -515
f 229/7/3 225/2/3 228/3/3 231/8/3 

v 500 0.5 -500
f 228/5/4 227/2/4 232/9/4 231/10/4 

f 226/2/5 230/9/5 232/11/5 227/3/5 

f 230/2/6 229/12/6 231/13/6 232/3/6 

g Mesh30 ___10_30 ___27_1 Model

v 455 3.05261e-14 -215
v 455 3.05261e-14 -200
v 455 0.5 -200
v 455 0.5 -215
f 233/1/1 234/2/1 235/3/1 236/4/1 

v 500 3.05261e-14 -215
v 500 3.05261e-14 -200
f 234/2/2 233/5/2 237/6/2 238/7/2 

v 500 0.5 -215
f 237/7/3 233/2/3 236/3/3 239/8/3 

v 500 0.5 -200
f 236/5/4 235/2/4 240/9/4 239/10/4 

f 234/2/5 238/9/5 240/11/5 235/3/5 

f 238/2/6 237/12/6 239/13/6 240/3/6 

g Mesh31 ___10_31 ___27_1 Model

v 455 3.05261e-14 -915
v 455 3.05261e-14 -900
v 455 0.5 -900
v 455 0.5 -915
f 241/1/1 242/2/1 243/3/1 244/4/1 

v 500 3.05261e-14 -915
v 500 3.05261e-14 -900
f 242/2/2 241/5/2 245/6/2 246/7/2 

v 500 0.5 -915
f 245/7/3 241/2/3 244/3/3 247/8/3 

v 500 0.5 -900
f 244/5/4 243/2/4 248/9/4 247/10/4 

f 242/2/5 246/9/5 248/11/5 243/3/5 

f 246/2/6 245/12/6 247/13/6 248/3/6 

g Mesh32 ___10_32 ___27_1 Model

v 0 3.15131e-14 -615
v 0 3.15131e-14 -600
v 0 0.5 -600
v 0 0.5 -615
f 249/1/1 250/2/1 251/3/1 252/4/1 

v 45 3.15131e-14 -615
v 45 3.15131e-14 -600
f 250/2/2 249/5/2 253/6/2 254/7/2 

v 45 0.5 -615
f 253/7/3 249/2/3 252/3/3 255/8/3 

v 45 0.5 -600
f 252/5/4 251/2/4 256/9/4 255/10/4 

f 250/2/5 254/9/5 256/11/5 251/3/5 

f 254/2/6 253/12/6 255/13/6 256/3/6 

g Mesh33 ___10_33 ___27_1 Model

v 0 2.62962e-14 -515
v 0 2.62962e-14 -500
v 0 0.5 -500
v 0 0.5 -515
f 257/1/1 258/2/1 259/3/1 260/4/1 

v 45 2.62962e-14 -515
v 45 2.62962e-14 -500
f 258/2/2 257/5/2 261/6/2 262/7/2 

v 45 0.5 -515
f 261/7/3 257/2/3 260/3/3 263/8/3 

v 45 0.5 -500
f 260/5/4 259/2/4 264/9/4 263/10/4 

f 258/2/5 262/9/5 264/11/5 259/3/5 

f 262/2/6 261/12/6 263/13/6 264/3/6 

g Mesh34 ___10_34 ___27_1 Model

v 455 5.15349e-14 -615
v 455 5.15349e-14 -600
v 455 0.5 -600
v 455 0.5 -615
f 265/1/1 266/2/1 267/3/1 268/4/1 

v 500 5.15349e-14 -615
v 500 5.15349e-14 -600
f 266/2/2 265/5/2 269/6/2 270/7/2 

v 500 0.5 -615
f 269/7/3 265/2/3 268/3/3 271/8/3 

v 500 0.5 -600
f 268/5/4 267/2/4 272/9/4 271/10/4 

f 266/2/5 270/9/5 272/11/5 267/3/5 

f 270/2/6 269/12/6 271/13/6 272/3/6 

g Mesh35 ___10_35 ___27_1 Model

v 0 0 -15
v 0 0 -0
v 0 0.5 -0
v 0 0.5 -15
f 273/1/1 274/2/1 275/3/1 276/4/1 

v 45 0 -15
v 45 0 -0
f 274/2/2 273/5/2 277/6/2 278/7/2 

v 45 0.5 -15
f 277/7/3 273/2/3 276/3/3 279/8/3 

v 45 0.5 -0
f 276/5/4 275/2/4 280/9/4 279/10/4 

f 274/2/5 278/9/5 280/11/5 275/3/5 

f 278/2/6 277/12/6 279/13/6 280/3/6 

g Mesh36 ___10_36 ___27_1 Model

v 455 6.20393e-14 -1515
v 455 6.20393e-14 -1500
v 455 0.5 -1500
v 455 0.5 -1515
f 281/1/1 282/2/1 283/3/1 284/4/1 

v 500 6.20393e-14 -1515
v 500 6.20393e-14 -1500
f 282/2/2 281/5/2 285/6/2 286/7/2 

v 500 0.5 -1515
f 285/7/3 281/2/3 284/3/3 287/8/3 

v 500 0.5 -1500
f 284/5/4 283/2/4 288/9/4 287/10/4 

f 282/2/5 286/9/5 288/11/5 283/3/5 

f 286/2/6 285/12/6 287/13/6 288/3/6 

g Mesh37 ___10_37 ___27_1 Model

v 0 5.28744e-15 -115
v 0 5.28744e-15 -100
v 0 0.5 -100
v 0 0.5 -115
f 289/1/1 290/2/1 291/3/1 292/4/1 

v 45 5.28744e-15 -115
v 45 5.28744e-15 -100
f 290/2/2 289/5/2 293/6/2 294/7/2 

v 45 0.5 -115
f 293/7/3 289/2/3 292/3/3 295/8/3 

v 45 0.5 -100
f 292/5/4 291/2/4 296/9/4 295/10/4 

f 290/2/5 294/9/5 296/11/5 291/3/5 

f 294/2/6 293/12/6 295/13/6 296/3/6 

g Mesh38 ___10_38 ___27_1 Model

v 455 2.00218e-14 -715
v 455 2.00218e-14 -700
v 455 0.5 -700
v 455 0.5 -715
f 297/1/1 298/2/1 299/3/1 300/4/1 

v 500 2.00218e-14 -715
v 500 2.00218e-14 -700
f 298/2/2 297/5/2 301/6/2 302/7/2 

v 500 0.5 -715
f 301/7/3 297/2/3 300/3/3 303/8/3 

v 500 0.5 -700
f 300/5/4 299/2/4 304/9/4 303/10/4 

f 298/2/5 302/9/5 304/11/5 299/3/5 

f 302/2/6 301/12/6 303/13/6 304/3/6 

g Mesh39 ___10_39 ___27_1 Model

v 0 4.72344e-14 -1615
v 0 4.72344e-14 -1600
v 0 0.5 -1600
v 0 0.5 -1615
f 305/1/1 306/2/1 307/3/1 308/4/1 

v 45 4.72344e-14 -1615
v 45 4.72344e-14 -1600
f 306/2/2 305/5/2 309/6/2 310/7/2 

v 45 0.5 -1615
f 309/7/3 305/2/3 308/3/3 311/8/3 

v 45 0.5 -1600
f 308/5/4 307/2/4 312/9/4 311/10/4 

f 306/2/5 310/9/5 312/11/5 307/3/5 

f 310/2/6 309/12/6 311/13/6 312/3/6 

g Mesh40 ___10_40 ___27_1 Model

v 455 5.15349e-14 -1315
v 455 5.15349e-14 -1300
v 455 0.5 -1300
v 455 0.5 -1315
f 313/1/1 314/2/1 315/3/1 316/4/1 

v 500 5.15349e-14 -1315
v 500 5.15349e-14 -1300
f 314/2/2 313/5/2 317/6/2 318/7/2 

v 500 0.5 -1315
f 317/7/3 313/2/3 316/3/3 319/8/3 

v 500 0.5 -1300
f 316/5/4 315/2/4 320/9/4 319/10/4 

f 314/2/5 318/9/5 320/11/5 315/3/5 

f 318/2/6 317/12/6 319/13/6 320/3/6 

g Mesh41 ___10_41 ___27_1 Model

v 455 7.25436e-14 -1715
v 455 7.25436e-14 -1700
v 455 0.5 -1700
v 455 0.5 -1715
f 321/1/1 322/2/1 323/3/1 324/4/1 

v 500 7.25436e-14 -1715
v 500 7.25436e-14 -1700
f 322/2/2 321/5/2 325/6/2 326/7/2 

v 500 0.5 -1715
f 325/7/3 321/2/3 324/3/3 327/8/3 

v 500 0.5 -1700
f 324/5/4 323/2/4 328/9/4 327/10/4 

f 322/2/5 326/9/5 328/11/5 323/3/5 

f 326/2/6 325/12/6 327/13/6 328/3/6 

g Mesh42 ___10_42 ___27_1 Model

v 455 4.10305e-14 -415
v 455 4.10305e-14 -400
v 455 0.5 -400
v 455 0.5 -415
f 329/1/1 330/2/1 331/3/1 332/4/1 

v 500 4.10305e-14 -415
v 500 4.10305e-14 -400
f 330/2/2 329/5/2 333/6/2 334/7/2 

v 500 0.5 -415
f 333/7/3 329/2/3 332/3/3 335/8/3 

v 500 0.5 -400
f 332/5/4 331/2/4 336/9/4 335/10/4 

f 330/2/5 334/9/5 336/11/5 331/3/5 

f 334/2/6 333/12/6 335/13/6 336/3/6 

g Mesh43 ___10_43 ___27_1 Model

v 0 2.10088e-14 -415
v 0 2.10088e-14 -400
v 0 0.5 -400
v 0 0.5 -415
f 337/1/1 338/2/1 339/3/1 340/4/1 

v 45 2.10088e-14 -415
v 45 2.10088e-14 -400
f 338/2/2 337/5/2 341/6/2 342/7/2 

v 45 0.5 -415
f 341/7/3 337/2/3 340/3/3 343/8/3 

v 45 0.5 -400
f 340/5/4 339/2/4 344/9/4 343/10/4 

f 338/2/5 342/9/5 344/11/5 339/3/5 

f 342/2/6 341/12/6 343/13/6 344/3/6 

g Mesh44 ___10_44 ___27_1 Model

v 0 6.30263e-14 -1915
v 0 6.30263e-14 -1900
v 0 0.5 -1900
v 0 0.5 -1915
f 345/1/1 346/2/1 347/3/1 348/4/1 

v 45 6.30263e-14 -1915
v 45 6.30263e-14 -1900
f 346/2/2 345/5/2 349/6/2 350/7/2 

v 45 0.5 -1915
f 349/7/3 345/2/3 348/3/3 351/8/3 

v 45 0.5 -1900
f 348/5/4 347/2/4 352/9/4 351/10/4 

f 346/2/5 350/9/5 352/11/5 347/3/5 

f 350/2/6 349/12/6 351/13/6 352/3/6 

